<svg xmlns="http://www.w3.org/2000/svg" xmlns:xlink="http://www.w3.org/1999/xlink" width="5152" height="352pt" viewBox="0 0 3864 352"><g id="graph0" class="graph" transform="scale(1 1) rotate(0) translate(4 348)"><title>dependencies</title><polygon fill="#fff" stroke="transparent" points="-4 4 -4 -348 3860 -348 3860 4 -4 4"/><text x="1907.009" y="-42.4" fill="#000" font-family="sans-serif" font-size="14" font-weight="bold" text-anchor="start">Legend</text><polygon fill="#ffffb3" stroke="transparent" points="1694 -10 1694 -30 1714 -30 1714 -10 1694 -10"/><text x="1717.629" y="-15.4" fill="#000" font-family="sans-serif" font-size="14" text-anchor="start">Declarations</text><polygon fill="#8dd3c7" stroke="transparent" points="1807 -10 1807 -30 1827 -30 1827 -10 1807 -10"/><text x="1830.725" y="-15.4" fill="#000" font-family="sans-serif" font-size="14" text-anchor="start">Module</text><polygon fill="#80b1d3" stroke="transparent" points="1893 -10 1893 -30 1913 -30 1913 -10 1893 -10"/><text x="1916.781" y="-15.4" fill="#000" font-family="sans-serif" font-size="14" text-anchor="start">Bootstrap</text><polygon fill="#fdb462" stroke="transparent" points="1990 -10 1990 -30 2010 -30 2010 -10 1990 -10"/><text x="2013.673" y="-15.4" fill="#000" font-family="sans-serif" font-size="14" text-anchor="start">Providers</text><polygon fill="#fb8072" stroke="transparent" points="2086 -10 2086 -30 2106 -30 2106 -10 2086 -10"/><text x="2109.726" y="-15.4" fill="#000" font-family="sans-serif" font-size="14" text-anchor="start">Exports</text><g id="clust1" class="cluster"><title>cluster_L10nIntlModule</title><polygon fill="none" stroke="#000" stroke-dasharray="1 5" points="8 -70 8 -268 1556 -268 1556 -70 8 -70"/></g><g id="clust2" class="cluster"><title>cluster_L10nIntlModule_declarations</title><polygon fill="none" stroke="#000" points="188 -78 188 -130 1548 -130 1548 -78 188 -78"/></g><g id="clust13" class="cluster"><title>cluster_L10nIntlModule_exports</title><polygon fill="none" stroke="#000" points="90 -208 90 -260 1482 -260 1482 -208 90 -208"/></g><g id="clust15" class="cluster"><title>cluster_L10nIntlModule_providers</title><polygon fill="none" stroke="#000" points="16 -78 16 -130 180 -130 180 -78 16 -78"/></g><g id="clust22" class="cluster"><title>cluster_L10nTranslationModule</title><polygon fill="none" stroke="#000" stroke-dasharray="1 5" points="1564 -70 1564 -268 2074 -268 2074 -70 1564 -70"/></g><g id="clust23" class="cluster"><title>cluster_L10nTranslationModule_declarations</title><polygon fill="none" stroke="#000" points="1578 -78 1578 -130 2060 -130 2060 -78 1578 -78"/></g><g id="clust28" class="cluster"><title>cluster_L10nTranslationModule_exports</title><polygon fill="none" stroke="#000" points="1572 -208 1572 -260 2066 -260 2066 -208 1572 -208"/></g><g id="clust31" class="cluster"><title>cluster_L10nValidationModule</title><polygon fill="none" stroke="#000" stroke-dasharray="1 5" points="2082 -70 2082 -336 3848 -336 3848 -70 2082 -70"/></g><g id="clust32" class="cluster"><title>cluster_L10nValidationModule_declarations</title><polygon fill="none" stroke="#000" points="2769 -143 2769 -195 3165 -195 3165 -143 2769 -143"/></g><g id="clust33" class="cluster"><title>cluster_L10nValidationModule_L10nValidateDateDirective_providers</title><polygon fill="none" stroke="#000" points="2982 -78 2982 -130 3840 -130 3840 -78 2982 -78"/></g><g id="clust34" class="cluster"><title>cluster_L10nValidationModule_L10nValidateNumberDirective_providers</title><polygon fill="none" stroke="#000" points="2090 -78 2090 -130 2974 -130 2974 -78 2090 -78"/></g><g id="clust36" class="cluster"><title>cluster_L10nValidationModule_exports</title><polygon fill="none" stroke="#000" points="2765 -276 2765 -328 3168 -328 3168 -276 2765 -276"/></g><g id="node1" class="node"><title>L10nDateAsyncPipe</title><polygon fill="#ffffb3" stroke="#000" points="1540.133 -122 1407.867 -122 1407.867 -86 1540.133 -86 1540.133 -122"/><text x="1474" y="-99.8" fill="#000" font-family="Times,serif" font-size="14" text-anchor="middle">L10nDateAsyncPipe</text></g><g id="node10" class="node"><title>L10nIntlModule</title><polygon fill="#8dd3c7" stroke="#000" points="863.045 -187 860.045 -191 839.045 -191 836.045 -187 754.955 -187 754.955 -151 863.045 -151 863.045 -187"/><text x="809" y="-164.8" fill="#000" font-family="Times,serif" font-size="14" text-anchor="middle">L10nIntlModule</text></g><g id="edge1" class="edge"><title>L10nDateAsyncPipe-&gt;L10nIntlModule</title><path fill="none" stroke="#000" d="M1440.875,-122.302C1440.875,-140.2699 1440.875,-165 1440.875,-165 1440.875,-165 873.1465,-165 873.1465,-165"/><polygon fill="#000" stroke="#000" points="873.146 -161.5 863.146 -165 873.146 -168.5 873.146 -161.5"/></g><g id="node2" class="node"><title>L10nDateDirective</title><polygon fill="#ffffb3" stroke="#000" points="1390.062 -122 1265.938 -122 1265.938 -86 1390.062 -86 1390.062 -122"/><text x="1328" y="-99.8" fill="#000" font-family="Times,serif" font-size="14" text-anchor="middle">L10nDateDirective</text></g><g id="edge2" class="edge"><title>L10nDateDirective-&gt;L10nIntlModule</title><path fill="none" stroke="#000" d="M1292.875,-122.0352C1292.875,-138.7344 1292.875,-161 1292.875,-161 1292.875,-161 873.0981,-161 873.0981,-161"/><polygon fill="#000" stroke="#000" points="873.098 -157.5 863.098 -161 873.098 -164.5 873.098 -157.5"/></g><g id="node3" class="node"><title>L10nDatePipe</title><polygon fill="#ffffb3" stroke="#000" points="1248.367 -122 1151.633 -122 1151.633 -86 1248.367 -86 1248.367 -122"/><text x="1200" y="-99.8" fill="#000" font-family="Times,serif" font-size="14" text-anchor="middle">L10nDatePipe</text></g><g id="edge3" class="edge"><title>L10nDatePipe-&gt;L10nIntlModule</title><path fill="none" stroke="#000" d="M1162.875,-122.2819C1162.875,-137.9478 1162.875,-158 1162.875,-158 1162.875,-158 873.1312,-158 873.1312,-158"/><polygon fill="#000" stroke="#000" points="873.131 -154.5 863.131 -158 873.131 -161.5 873.131 -154.5"/></g><g id="node4" class="node"><title>L10nNumberAsyncPipe</title><polygon fill="#ffffb3" stroke="#000" points="1134.079 -122 981.921 -122 981.921 -86 1134.079 -86 1134.079 -122"/><text x="1058" y="-99.8" fill="#000" font-family="Times,serif" font-size="14" text-anchor="middle">L10nNumberAsyncPipe</text></g><g id="edge4" class="edge"><title>L10nNumberAsyncPipe-&gt;L10nIntlModule</title><path fill="none" stroke="#000" d="M1018.875,-122.1243C1018.875,-136.7832 1018.875,-155 1018.875,-155 1018.875,-155 873.048,-155 873.048,-155"/><polygon fill="#000" stroke="#000" points="873.048 -151.5 863.048 -155 873.048 -158.5 873.048 -151.5"/></g><g id="node5" class="node"><title>L10nNumberDirective</title><polygon fill="#ffffb3" stroke="#000" points="963.509 -122 820.491 -122 820.491 -86 963.509 -86 963.509 -122"/><text x="892" y="-99.8" fill="#000" font-family="Times,serif" font-size="14" text-anchor="middle">L10nNumberDirective</text></g><g id="edge5" class="edge"><title>L10nNumberDirective-&gt;L10nIntlModule</title><path fill="none" stroke="#000" d="M841.7591,-122.1061C841.7591,-122.1061 841.7591,-140.991 841.7591,-140.991"/><polygon fill="#000" stroke="#000" points="838.259 -140.991 841.759 -150.991 845.259 -140.991 838.259 -140.991"/></g><g id="node6" class="node"><title>L10nNumberPipe</title><polygon fill="#ffffb3" stroke="#000" points="802.313 -122 685.687 -122 685.687 -86 802.313 -86 802.313 -122"/><text x="744" y="-99.8" fill="#000" font-family="Times,serif" font-size="14" text-anchor="middle">L10nNumberPipe</text></g><g id="edge6" class="edge"><title>L10nNumberPipe-&gt;L10nIntlModule</title><path fill="none" stroke="#000" d="M778.4422,-122.1061C778.4422,-122.1061 778.4422,-140.991 778.4422,-140.991"/><polygon fill="#000" stroke="#000" points="774.942 -140.991 778.442 -150.991 781.942 -140.991 774.942 -140.991"/></g><g id="node7" class="node"><title>L10nTimeAgoAsyncPipe</title><polygon fill="#ffffb3" stroke="#000" points="667.861 -122 508.139 -122 508.139 -86 667.861 -86 667.861 -122"/><text x="588" y="-99.8" fill="#000" font-family="Times,serif" font-size="14" text-anchor="middle">L10nTimeAgoAsyncPipe</text></g><g id="edge7" class="edge"><title>L10nTimeAgoAsyncPipe-&gt;L10nIntlModule</title><path fill="none" stroke="#000" d="M633.0121,-122.1243C633.0121,-136.7832 633.0121,-155 633.0121,-155 633.0121,-155 744.7618,-155 744.7618,-155"/><polygon fill="#000" stroke="#000" points="744.762 -158.5 754.762 -155 744.762 -151.5 744.762 -158.5"/></g><g id="node8" class="node"><title>L10nTimeAgoDirective</title><polygon fill="#ffffb3" stroke="#000" points="489.791 -122 338.209 -122 338.209 -86 489.791 -86 489.791 -122"/><text x="414" y="-99.8" fill="#000" font-family="Times,serif" font-size="14" text-anchor="middle">L10nTimeAgoDirective</text></g><g id="edge8" class="edge"><title>L10nTimeAgoDirective-&gt;L10nIntlModule</title><path fill="none" stroke="#000" d="M452.9823,-122.0091C452.9823,-138.0494 452.9823,-159 452.9823,-159 452.9823,-159 744.9286,-159 744.9286,-159"/><polygon fill="#000" stroke="#000" points="744.929 -162.5 754.929 -159 744.928 -155.5 744.929 -162.5"/></g><g id="node9" class="node"><title>L10nTimeAgoPipe</title><polygon fill="#ffffb3" stroke="#000" points="320.095 -122 195.905 -122 195.905 -86 320.095 -86 320.095 -122"/><text x="258" y="-99.8" fill="#000" font-family="Times,serif" font-size="14" text-anchor="middle">L10nTimeAgoPipe</text></g><g id="edge9" class="edge"><title>L10nTimeAgoPipe-&gt;L10nIntlModule</title><path fill="none" stroke="#000" d="M281.8263,-122.0225C281.8263,-139.3734 281.8263,-163 281.8263,-163 281.8263,-163 744.5687,-163 744.5687,-163"/><polygon fill="#000" stroke="#000" points="744.569 -166.5 754.569 -163 744.569 -159.5 744.569 -166.5"/></g><g id="node11" class="node"><title>L10nDateAsyncPipe</title><polygon fill="#fb8072" stroke="#000" points="1474.133 -252 1337.867 -252 1337.867 -216 1474.133 -216 1474.133 -252"/><text x="1406" y="-229.8" fill="#000" font-family="Times,serif" font-size="14" text-anchor="middle">L10nDateAsyncPipe</text></g><g id="edge10" class="edge"><title>L10nIntlModule-&gt;L10nDateAsyncPipe</title><path fill="none" stroke="#000" stroke-dasharray="5 2" d="M863.2245,-168C1002.8725,-168 1363.9823,-168 1363.9823,-168 1363.9823,-168 1363.9823,-205.9652 1363.9823,-205.9652"/><polygon fill="#000" stroke="#000" points="1360.482 -205.965 1363.982 -215.965 1367.482 -205.965 1360.482 -205.965"/></g><g id="node12" class="node"><title>L10nDateDirective</title><polygon fill="#fb8072" stroke="#000" points="1319.563 -252 1192.437 -252 1192.437 -216 1319.563 -216 1319.563 -252"/><text x="1256" y="-229.8" fill="#000" font-family="Times,serif" font-size="14" text-anchor="middle">L10nDateDirective</text></g><g id="edge11" class="edge"><title>L10nIntlModule-&gt;L10nDateDirective</title><path fill="none" stroke="#000" stroke-dasharray="5 2" d="M863.1967,-171C974.8896,-171 1220.3263,-171 1220.3263,-171 1220.3263,-171 1220.3263,-205.7778 1220.3263,-205.7778"/><polygon fill="#000" stroke="#000" points="1216.826 -205.778 1220.326 -215.778 1223.826 -205.778 1216.826 -205.778"/></g><g id="node13" class="node"><title>L10nDatePipe</title><polygon fill="#fb8072" stroke="#000" points="1174.368 -252 1073.632 -252 1073.632 -216 1174.368 -216 1174.368 -252"/><text x="1124" y="-229.8" fill="#000" font-family="Times,serif" font-size="14" text-anchor="middle">L10nDatePipe</text></g><g id="edge12" class="edge"><title>L10nIntlModule-&gt;L10nDatePipe</title><path fill="none" stroke="#000" stroke-dasharray="5 2" d="M863.0943,-174C948.2375,-174 1103.928,-174 1103.928,-174 1103.928,-174 1103.928,-205.998 1103.928,-205.998"/><polygon fill="#000" stroke="#000" points="1100.428 -205.998 1103.928 -215.998 1107.428 -205.998 1100.428 -205.998"/></g><g id="node14" class="node"><title>L10nNumberAsyncPipe</title><polygon fill="#fb8072" stroke="#000" points="1055.579 -252 900.421 -252 900.421 -216 1055.579 -216 1055.579 -252"/><text x="978" y="-229.8" fill="#000" font-family="Times,serif" font-size="14" text-anchor="middle">L10nNumberAsyncPipe</text></g><g id="edge13" class="edge"><title>L10nIntlModule-&gt;L10nNumberAsyncPipe</title><path fill="none" stroke="#000" stroke-dasharray="5 2" d="M863.2998,-178C896.2451,-178 931.9823,-178 931.9823,-178 931.9823,-178 931.9823,-205.973 931.9823,-205.973"/><polygon fill="#000" stroke="#000" points="928.482 -205.973 931.982 -215.973 935.482 -205.973 928.482 -205.973"/></g><g id="node15" class="node"><title>L10nNumberDirective</title><polygon fill="#fb8072" stroke="#000" points="882.508 -252 735.492 -252 735.492 -216 882.508 -216 882.508 -252"/><text x="809" y="-229.8" fill="#000" font-family="Times,serif" font-size="14" text-anchor="middle">L10nNumberDirective</text></g><g id="edge14" class="edge"><title>L10nIntlModule-&gt;L10nNumberDirective</title><path fill="none" stroke="#000" stroke-dasharray="5 2" d="M809,-187.1061C809,-187.1061 809,-205.991 809,-205.991"/><polygon fill="#000" stroke="#000" points="805.5 -205.991 809 -215.991 812.5 -205.991 805.5 -205.991"/></g><g id="node16" class="node"><title>L10nNumberPipe</title><polygon fill="#fb8072" stroke="#000" points="717.813 -252 598.187 -252 598.187 -216 717.813 -216 717.813 -252"/><text x="658" y="-229.8" fill="#000" font-family="Times,serif" font-size="14" text-anchor="middle">L10nNumberPipe</text></g><g id="edge15" class="edge"><title>L10nIntlModule-&gt;L10nNumberPipe</title><path fill="none" stroke="#000" stroke-dasharray="5 2" d="M754.8098,-183C728.2394,-183 701.875,-183 701.875,-183 701.875,-183 701.875,-205.8757 701.875,-205.8757"/><polygon fill="#000" stroke="#000" points="698.375 -205.876 701.875 -215.876 705.375 -205.876 698.375 -205.876"/></g><g id="node17" class="node"><title>L10nTimeAgoAsyncPipe</title><polygon fill="#fb8072" stroke="#000" points="579.862 -252 416.138 -252 416.138 -216 579.862 -216 579.862 -252"/><text x="498" y="-229.8" fill="#000" font-family="Times,serif" font-size="14" text-anchor="middle">L10nTimeAgoAsyncPipe</text></g><g id="edge16" class="edge"><title>L10nIntlModule-&gt;L10nTimeAgoAsyncPipe</title><path fill="none" stroke="#000" stroke-dasharray="5 2" d="M754.7082,-179C677.1424,-179 543.875,-179 543.875,-179 543.875,-179 543.875,-205.9909 543.875,-205.9909"/><polygon fill="#000" stroke="#000" points="540.375 -205.991 543.875 -215.991 547.375 -205.991 540.375 -205.991"/></g><g id="node18" class="node"><title>L10nTimeAgoDirective</title><polygon fill="#fb8072" stroke="#000" points="398.291 -252 243.709 -252 243.709 -216 398.291 -216 398.291 -252"/><text x="321" y="-229.8" fill="#000" font-family="Times,serif" font-size="14" text-anchor="middle">L10nTimeAgoDirective</text></g><g id="edge17" class="edge"><title>L10nIntlModule-&gt;L10nTimeAgoDirective</title><path fill="none" stroke="#000" stroke-dasharray="5 2" d="M754.5288,-175C636.6392,-175 368.375,-175 368.375,-175 368.375,-175 368.375,-205.9775 368.375,-205.9775"/><polygon fill="#000" stroke="#000" points="364.875 -205.977 368.375 -215.977 371.875 -205.977 364.875 -205.977"/></g><g id="node19" class="node"><title>L10nTimeAgoPipe</title><polygon fill="#fb8072" stroke="#000" points="225.596 -252 98.404 -252 98.404 -216 225.596 -216 225.596 -252"/><text x="162" y="-229.8" fill="#000" font-family="Times,serif" font-size="14" text-anchor="middle">L10nTimeAgoPipe</text></g><g id="edge18" class="edge"><title>L10nIntlModule-&gt;L10nTimeAgoPipe</title><path fill="none" stroke="#000" stroke-dasharray="5 2" d="M754.8655,-171C607.6316,-171 210.875,-171 210.875,-171 210.875,-171 210.875,-205.7778 210.875,-205.7778"/><polygon fill="#000" stroke="#000" points="207.375 -205.778 210.875 -215.778 214.375 -205.778 207.375 -205.778"/></g><g id="node20" class="node"><title>L10nIntlService</title><ellipse cx="98" cy="-104" fill="#fdb462" stroke="#000" rx="73.575" ry="18"/><text x="98" y="-99.8" fill="#000" font-family="Times,serif" font-size="14" text-anchor="middle">L10nIntlService</text></g><g id="edge19" class="edge"><title>L10nIntlService-&gt;L10nIntlModule</title><path fill="none" stroke="#000" d="M134.9948,-119.8976C134.9948,-138.5608 134.9948,-167 134.9948,-167 134.9948,-167 744.6988,-167 744.6988,-167"/><polygon fill="#000" stroke="#000" points="744.699 -170.5 754.699 -167 744.699 -163.5 744.699 -170.5"/></g><g id="node21" class="node"><title>L10nTranslateAsyncPipe</title><polygon fill="#ffffb3" stroke="#000" points="2052.289 -122 1893.711 -122 1893.711 -86 2052.289 -86 2052.289 -122"/><text x="1973" y="-99.8" fill="#000" font-family="Times,serif" font-size="14" text-anchor="middle">L10nTranslateAsyncPipe</text></g><g id="node24" class="node"><title>L10nTranslationModule</title><polygon fill="#8dd3c7" stroke="#000" points="1877.361 -187 1874.361 -191 1853.361 -191 1850.361 -187 1724.639 -187 1724.639 -151 1877.361 -151 1877.361 -187"/><text x="1801" y="-164.8" fill="#000" font-family="Times,serif" font-size="14" text-anchor="middle">L10nTranslationModule</text></g><g id="edge20" class="edge"><title>L10nTranslateAsyncPipe-&gt;L10nTranslationModule</title><path fill="none" stroke="#000" d="M2000.1315,-122.0225C2000.1315,-139.3734 2000.1315,-163 2000.1315,-163 2000.1315,-163 1887.4199,-163 1887.4199,-163"/><polygon fill="#000" stroke="#000" points="1887.42 -159.5 1877.42 -163 1887.42 -166.5 1887.42 -159.5"/></g><g id="node22" class="node"><title>L10nTranslateDirective</title><polygon fill="#ffffb3" stroke="#000" points="1875.718 -122 1726.282 -122 1726.282 -86 1875.718 -86 1875.718 -122"/><text x="1801" y="-99.8" fill="#000" font-family="Times,serif" font-size="14" text-anchor="middle">L10nTranslateDirective</text></g><g id="edge21" class="edge"><title>L10nTranslateDirective-&gt;L10nTranslationModule</title><path fill="none" stroke="#000" d="M1801,-122.1061C1801,-122.1061 1801,-140.991 1801,-140.991"/><polygon fill="#000" stroke="#000" points="1797.5 -140.991 1801 -150.991 1804.5 -140.991 1797.5 -140.991"/></g><g id="node23" class="node"><title>L10nTranslatePipe</title><polygon fill="#ffffb3" stroke="#000" points="1708.024 -122 1585.976 -122 1585.976 -86 1708.024 -86 1708.024 -122"/><text x="1647" y="-99.8" fill="#000" font-family="Times,serif" font-size="14" text-anchor="middle">L10nTranslatePipe</text></g><g id="edge22" class="edge"><title>L10nTranslatePipe-&gt;L10nTranslationModule</title><path fill="none" stroke="#000" d="M1665.9205,-122.2479C1665.9205,-145.0179 1665.9205,-181 1665.9205,-181 1665.9205,-181 1714.3827,-181 1714.3827,-181"/><polygon fill="#000" stroke="#000" points="1714.383 -184.5 1724.383 -181 1714.383 -177.5 1714.383 -184.5"/></g><g id="node25" class="node"><title>L10nTranslateAsyncPipe</title><polygon fill="#fb8072" stroke="#000" points="2057.789 -252 1896.211 -252 1896.211 -216 2057.789 -216 2057.789 -252"/><text x="1977" y="-229.8" fill="#000" font-family="Times,serif" font-size="14" text-anchor="middle">L10nTranslateAsyncPipe</text></g><g id="edge23" class="edge"><title>L10nTranslationModule-&gt;L10nTranslateAsyncPipe</title><path fill="none" stroke="#000" stroke-dasharray="5 2" d="M1877.5756,-175C1913.3228,-175 1948.1185,-175 1948.1185,-175 1948.1185,-175 1948.1185,-205.9775 1948.1185,-205.9775"/><polygon fill="#000" stroke="#000" points="1944.619 -205.977 1948.119 -215.977 1951.619 -205.977 1944.619 -205.977"/></g><g id="node26" class="node"><title>L10nTranslateDirective</title><polygon fill="#fb8072" stroke="#000" points="1877.718 -252 1724.282 -252 1724.282 -216 1877.718 -216 1877.718 -252"/><text x="1801" y="-229.8" fill="#000" font-family="Times,serif" font-size="14" text-anchor="middle">L10nTranslateDirective</text></g><g id="edge24" class="edge"><title>L10nTranslationModule-&gt;L10nTranslateDirective</title><path fill="none" stroke="#000" stroke-dasharray="5 2" d="M1801,-187.1061C1801,-187.1061 1801,-205.991 1801,-205.991"/><polygon fill="#000" stroke="#000" points="1797.5 -205.991 1801 -215.991 1804.5 -205.991 1797.5 -205.991"/></g><g id="node27" class="node"><title>L10nTranslatePipe</title><polygon fill="#fb8072" stroke="#000" points="1706.023 -252 1579.977 -252 1579.977 -216 1706.023 -216 1706.023 -252"/><text x="1643" y="-229.8" fill="#000" font-family="Times,serif" font-size="14" text-anchor="middle">L10nTranslatePipe</text></g><g id="edge25" class="edge"><title>L10nTranslationModule-&gt;L10nTranslatePipe</title><path fill="none" stroke="#000" stroke-dasharray="5 2" d="M1724.4225,-184C1677.2868,-184 1625.8295,-184 1625.8295,-184 1625.8295,-184 1625.8295,-205.9489 1625.8295,-205.9489"/><polygon fill="#000" stroke="#000" points="1622.33 -205.949 1625.83 -215.949 1629.33 -205.949 1622.33 -205.949"/></g><g id="node28" class="node"><title>L10nValidateDateDirective</title><polygon fill="#ffffb3" stroke="#000" points="3156.985 -187 2985.015 -187 2985.015 -151 3156.985 -151 3156.985 -187"/><text x="3071" y="-164.8" fill="#000" font-family="Times,serif" font-size="14" text-anchor="middle">L10nValidateDateDirective</text></g><g id="node30" class="node"><title>L10nValidationModule</title><polygon fill="#8dd3c7" stroke="#000" points="3045.201 -252 3042.201 -256 3021.201 -256 3018.201 -252 2896.799 -252 2896.799 -216 3045.201 -216 3045.201 -252"/><text x="2971" y="-229.8" fill="#000" font-family="Times,serif" font-size="14" text-anchor="middle">L10nValidationModule</text></g><g id="edge26" class="edge"><title>L10nValidateDateDirective-&gt;L10nValidationModule</title><path fill="none" stroke="#000" d="M3015.1792,-187.1061C3015.1792,-187.1061 3015.1792,-205.991 3015.1792,-205.991"/><polygon fill="#000" stroke="#000" points="3011.679 -205.991 3015.179 -215.991 3018.679 -205.991 3011.679 -205.991"/></g><g id="node29" class="node"><title>L10nValidateNumberDirective</title><polygon fill="#ffffb3" stroke="#000" points="2967.43 -187 2776.57 -187 2776.57 -151 2967.43 -151 2967.43 -187"/><text x="2872" y="-164.8" fill="#000" font-family="Times,serif" font-size="14" text-anchor="middle">L10nValidateNumberDirective</text></g><g id="edge28" class="edge"><title>L10nValidateNumberDirective-&gt;L10nValidationModule</title><path fill="none" stroke="#000" d="M2932.1824,-187.1061C2932.1824,-187.1061 2932.1824,-205.991 2932.1824,-205.991"/><polygon fill="#000" stroke="#000" points="2928.682 -205.991 2932.182 -215.991 2935.682 -205.991 2928.682 -205.991"/></g><g id="node33" class="node"><title>L10nValidateDateDirective</title><polygon fill="#fb8072" stroke="#000" points="3160.484 -320 2985.516 -320 2985.516 -284 3160.484 -284 3160.484 -320"/><text x="3073" y="-297.8" fill="#000" font-family="Times,serif" font-size="14" text-anchor="middle">L10nValidateDateDirective</text></g><g id="edge30" class="edge"><title>L10nValidationModule-&gt;L10nValidateDateDirective</title><path fill="none" stroke="#000" stroke-dasharray="5 2" d="M3015.3042,-252.2228C3015.3042,-252.2228 3015.3042,-273.7269 3015.3042,-273.7269"/><polygon fill="#000" stroke="#000" points="3011.804 -273.727 3015.304 -283.727 3018.804 -273.727 3011.804 -273.727"/></g><g id="node34" class="node"><title>L10nValidateNumberDirective</title><polygon fill="#fb8072" stroke="#000" points="2967.43 -320 2772.57 -320 2772.57 -284 2967.43 -284 2967.43 -320"/><text x="2870" y="-297.8" fill="#000" font-family="Times,serif" font-size="14" text-anchor="middle">L10nValidateNumberDirective</text></g><g id="edge31" class="edge"><title>L10nValidationModule-&gt;L10nValidateNumberDirective</title><path fill="none" stroke="#000" stroke-dasharray="5 2" d="M2932.0574,-252.2228C2932.0574,-252.2228 2932.0574,-273.7269 2932.0574,-273.7269"/><polygon fill="#000" stroke="#000" points="2928.557 -273.727 2932.057 -283.727 2935.557 -273.727 2928.557 -273.727"/></g><g id="node31" class="node"><title>{ provide: NG_VALIDATORS, useExisting: forwardRef(() =&gt; L10nValidateDateDirective), multi: true }</title><ellipse cx="3411" cy="-104" fill="#fdb462" stroke="#000" rx="420.662" ry="18"/><text x="3411" y="-99.8" fill="#000" font-family="Times,serif" font-size="14" text-anchor="middle">{ provide: NG_VALIDATORS, useExisting: forwardRef(() =&gt; L10nValidateDateDirective), multi: true }</text></g><g id="edge27" class="edge"><title>{ provide: NG_VALIDATORS, useExisting: forwardRef(() =&gt; L10nValidateDateDirective), multi: true }-&gt;L10nValidateDateDirective</title><path fill="none" stroke="#000" d="M3073.4556,-115.0264C3073.4556,-115.0264 3073.4556,-140.7791 3073.4556,-140.7791"/><polygon fill="#000" stroke="#000" points="3069.956 -140.779 3073.456 -150.779 3076.956 -140.779 3069.956 -140.779"/></g><g id="node32" class="node"><title>{ provide: NG_VALIDATORS, useExisting: forwardRef(() =&gt; L10nValidateNumberDirective), multi: true }</title><ellipse cx="2532" cy="-104" fill="#fdb462" stroke="#000" rx="434.489" ry="18"/><text x="2532" y="-99.8" fill="#000" font-family="Times,serif" font-size="14" text-anchor="middle">{ provide: NG_VALIDATORS, useExisting: forwardRef(() =&gt; L10nValidateNumberDirective), multi: true }</text></g><g id="edge29" class="edge"><title>{ provide: NG_VALIDATORS, useExisting: forwardRef(() =&gt; L10nValidateNumberDirective), multi: true }-&gt;L10nValidateNumberDirective</title><path fill="none" stroke="#000" d="M2871.3897,-115.3221C2871.3897,-115.3221 2871.3897,-140.9424 2871.3897,-140.9424"/><polygon fill="#000" stroke="#000" points="2867.89 -140.942 2871.39 -150.942 2874.89 -140.942 2867.89 -140.942"/></g></g></svg>