<svg xmlns="http://www.w3.org/2000/svg" xmlns:xlink="http://www.w3.org/1999/xlink" width="2096" height="284pt" viewBox="0 0 1572 284"><g id="graph0" class="graph" transform="scale(1 1) rotate(0) translate(4 280)"><title>dependencies</title><polygon fill="#fff" stroke="transparent" points="-4 4 -4 -280 1568 -280 1568 4 -4 4"/><text x="761.009" y="-42.4" fill="#000" font-family="sans-serif" font-size="14" font-weight="bold" text-anchor="start">Legend</text><polygon fill="#ffffb3" stroke="transparent" points="548 -10 548 -30 568 -30 568 -10 548 -10"/><text x="571.629" y="-15.4" fill="#000" font-family="sans-serif" font-size="14" text-anchor="start">Declarations</text><polygon fill="#8dd3c7" stroke="transparent" points="661 -10 661 -30 681 -30 681 -10 661 -10"/><text x="684.725" y="-15.4" fill="#000" font-family="sans-serif" font-size="14" text-anchor="start">Module</text><polygon fill="#80b1d3" stroke="transparent" points="747 -10 747 -30 767 -30 767 -10 747 -10"/><text x="770.781" y="-15.4" fill="#000" font-family="sans-serif" font-size="14" text-anchor="start">Bootstrap</text><polygon fill="#fdb462" stroke="transparent" points="844 -10 844 -30 864 -30 864 -10 844 -10"/><text x="867.673" y="-15.4" fill="#000" font-family="sans-serif" font-size="14" text-anchor="start">Providers</text><polygon fill="#fb8072" stroke="transparent" points="940 -10 940 -30 960 -30 960 -10 940 -10"/><text x="963.726" y="-15.4" fill="#000" font-family="sans-serif" font-size="14" text-anchor="start">Exports</text><g id="clust1" class="cluster"><title>cluster_L10nIntlModule</title><polygon fill="none" stroke="#000" stroke-dasharray="1 5" points="8 -70 8 -268 1556 -268 1556 -70 8 -70"/></g><g id="clust2" class="cluster"><title>cluster_L10nIntlModule_declarations</title><polygon fill="none" stroke="#000" points="188 -78 188 -130 1548 -130 1548 -78 188 -78"/></g><g id="clust13" class="cluster"><title>cluster_L10nIntlModule_exports</title><polygon fill="none" stroke="#000" points="90 -208 90 -260 1482 -260 1482 -208 90 -208"/></g><g id="clust15" class="cluster"><title>cluster_L10nIntlModule_providers</title><polygon fill="none" stroke="#000" points="16 -78 16 -130 180 -130 180 -78 16 -78"/></g><g id="node1" class="node"><title>L10nDateAsyncPipe</title><polygon fill="#ffffb3" stroke="#000" points="1540.133 -122 1407.867 -122 1407.867 -86 1540.133 -86 1540.133 -122"/><text x="1474" y="-99.8" fill="#000" font-family="Times,serif" font-size="14" text-anchor="middle">L10nDateAsyncPipe</text></g><g id="node10" class="node"><title>L10nIntlModule</title><polygon fill="#8dd3c7" stroke="#000" points="863.045 -187 860.045 -191 839.045 -191 836.045 -187 754.955 -187 754.955 -151 863.045 -151 863.045 -187"/><text x="809" y="-164.8" fill="#000" font-family="Times,serif" font-size="14" text-anchor="middle">L10nIntlModule</text></g><g id="edge1" class="edge"><title>L10nDateAsyncPipe-&gt;L10nIntlModule</title><path fill="none" stroke="#000" d="M1440.875,-122.2222C1440.875,-140.8285 1440.875,-167 1440.875,-167 1440.875,-167 873.1465,-167 873.1465,-167"/><polygon fill="#000" stroke="#000" points="873.146 -163.5 863.146 -167 873.146 -170.5 873.146 -163.5"/></g><g id="node2" class="node"><title>L10nDateDirective</title><polygon fill="#ffffb3" stroke="#000" points="1390.062 -122 1265.938 -122 1265.938 -86 1390.062 -86 1390.062 -122"/><text x="1328" y="-99.8" fill="#000" font-family="Times,serif" font-size="14" text-anchor="middle">L10nDateDirective</text></g><g id="edge2" class="edge"><title>L10nDateDirective-&gt;L10nIntlModule</title><path fill="none" stroke="#000" d="M1292.875,-122.0225C1292.875,-139.3734 1292.875,-163 1292.875,-163 1292.875,-163 873.0981,-163 873.0981,-163"/><polygon fill="#000" stroke="#000" points="873.098 -159.5 863.098 -163 873.098 -166.5 873.098 -159.5"/></g><g id="node3" class="node"><title>L10nDatePipe</title><polygon fill="#ffffb3" stroke="#000" points="1248.367 -122 1151.633 -122 1151.633 -86 1248.367 -86 1248.367 -122"/><text x="1200" y="-99.8" fill="#000" font-family="Times,serif" font-size="14" text-anchor="middle">L10nDatePipe</text></g><g id="edge3" class="edge"><title>L10nDatePipe-&gt;L10nIntlModule</title><path fill="none" stroke="#000" d="M1162.875,-122.0091C1162.875,-138.0494 1162.875,-159 1162.875,-159 1162.875,-159 873.1312,-159 873.1312,-159"/><polygon fill="#000" stroke="#000" points="873.131 -155.5 863.131 -159 873.131 -162.5 873.131 -155.5"/></g><g id="node4" class="node"><title>L10nNumberAsyncPipe</title><polygon fill="#ffffb3" stroke="#000" points="1134.079 -122 981.921 -122 981.921 -86 1134.079 -86 1134.079 -122"/><text x="1058" y="-99.8" fill="#000" font-family="Times,serif" font-size="14" text-anchor="middle">L10nNumberAsyncPipe</text></g><g id="edge4" class="edge"><title>L10nNumberAsyncPipe-&gt;L10nIntlModule</title><path fill="none" stroke="#000" d="M1018.875,-122.1243C1018.875,-136.7832 1018.875,-155 1018.875,-155 1018.875,-155 873.048,-155 873.048,-155"/><polygon fill="#000" stroke="#000" points="873.048 -151.5 863.048 -155 873.048 -158.5 873.048 -151.5"/></g><g id="node5" class="node"><title>L10nNumberDirective</title><polygon fill="#ffffb3" stroke="#000" points="963.509 -122 820.491 -122 820.491 -86 963.509 -86 963.509 -122"/><text x="892" y="-99.8" fill="#000" font-family="Times,serif" font-size="14" text-anchor="middle">L10nNumberDirective</text></g><g id="edge5" class="edge"><title>L10nNumberDirective-&gt;L10nIntlModule</title><path fill="none" stroke="#000" d="M841.7591,-122.1061C841.7591,-122.1061 841.7591,-140.991 841.7591,-140.991"/><polygon fill="#000" stroke="#000" points="838.259 -140.991 841.759 -150.991 845.259 -140.991 838.259 -140.991"/></g><g id="node6" class="node"><title>L10nNumberPipe</title><polygon fill="#ffffb3" stroke="#000" points="802.313 -122 685.687 -122 685.687 -86 802.313 -86 802.313 -122"/><text x="744" y="-99.8" fill="#000" font-family="Times,serif" font-size="14" text-anchor="middle">L10nNumberPipe</text></g><g id="edge6" class="edge"><title>L10nNumberPipe-&gt;L10nIntlModule</title><path fill="none" stroke="#000" d="M778.4422,-122.1061C778.4422,-122.1061 778.4422,-140.991 778.4422,-140.991"/><polygon fill="#000" stroke="#000" points="774.942 -140.991 778.442 -150.991 781.942 -140.991 774.942 -140.991"/></g><g id="node7" class="node"><title>L10nTimeAgoAsyncPipe</title><polygon fill="#ffffb3" stroke="#000" points="667.861 -122 508.139 -122 508.139 -86 667.861 -86 667.861 -122"/><text x="588" y="-99.8" fill="#000" font-family="Times,serif" font-size="14" text-anchor="middle">L10nTimeAgoAsyncPipe</text></g><g id="edge7" class="edge"><title>L10nTimeAgoAsyncPipe-&gt;L10nIntlModule</title><path fill="none" stroke="#000" d="M633.0121,-122.1243C633.0121,-136.7832 633.0121,-155 633.0121,-155 633.0121,-155 744.7618,-155 744.7618,-155"/><polygon fill="#000" stroke="#000" points="744.762 -158.5 754.762 -155 744.762 -151.5 744.762 -158.5"/></g><g id="node8" class="node"><title>L10nTimeAgoDirective</title><polygon fill="#ffffb3" stroke="#000" points="489.791 -122 338.209 -122 338.209 -86 489.791 -86 489.791 -122"/><text x="414" y="-99.8" fill="#000" font-family="Times,serif" font-size="14" text-anchor="middle">L10nTimeAgoDirective</text></g><g id="edge8" class="edge"><title>L10nTimeAgoDirective-&gt;L10nIntlModule</title><path fill="none" stroke="#000" d="M452.9823,-122.0091C452.9823,-138.0494 452.9823,-159 452.9823,-159 452.9823,-159 744.9286,-159 744.9286,-159"/><polygon fill="#000" stroke="#000" points="744.929 -162.5 754.929 -159 744.928 -155.5 744.929 -162.5"/></g><g id="node9" class="node"><title>L10nTimeAgoPipe</title><polygon fill="#ffffb3" stroke="#000" points="320.095 -122 195.905 -122 195.905 -86 320.095 -86 320.095 -122"/><text x="258" y="-99.8" fill="#000" font-family="Times,serif" font-size="14" text-anchor="middle">L10nTimeAgoPipe</text></g><g id="edge9" class="edge"><title>L10nTimeAgoPipe-&gt;L10nIntlModule</title><path fill="none" stroke="#000" d="M281.8263,-122.0225C281.8263,-139.3734 281.8263,-163 281.8263,-163 281.8263,-163 744.5687,-163 744.5687,-163"/><polygon fill="#000" stroke="#000" points="744.569 -166.5 754.569 -163 744.569 -159.5 744.569 -166.5"/></g><g id="node11" class="node"><title>L10nDateAsyncPipe</title><polygon fill="#fb8072" stroke="#000" points="1474.133 -252 1337.867 -252 1337.867 -216 1474.133 -216 1474.133 -252"/><text x="1406" y="-229.8" fill="#000" font-family="Times,serif" font-size="14" text-anchor="middle">L10nDateAsyncPipe</text></g><g id="edge10" class="edge"><title>L10nIntlModule-&gt;L10nDateAsyncPipe</title><path fill="none" stroke="#000" stroke-dasharray="5 2" d="M863.2245,-171C1002.8725,-171 1363.9823,-171 1363.9823,-171 1363.9823,-171 1363.9823,-205.7778 1363.9823,-205.7778"/><polygon fill="#000" stroke="#000" points="1360.482 -205.778 1363.982 -215.778 1367.482 -205.778 1360.482 -205.778"/></g><g id="node12" class="node"><title>L10nDateDirective</title><polygon fill="#fb8072" stroke="#000" points="1319.563 -252 1192.437 -252 1192.437 -216 1319.563 -216 1319.563 -252"/><text x="1256" y="-229.8" fill="#000" font-family="Times,serif" font-size="14" text-anchor="middle">L10nDateDirective</text></g><g id="edge11" class="edge"><title>L10nIntlModule-&gt;L10nDateDirective</title><path fill="none" stroke="#000" stroke-dasharray="5 2" d="M863.1967,-175C974.8896,-175 1220.3263,-175 1220.3263,-175 1220.3263,-175 1220.3263,-205.9775 1220.3263,-205.9775"/><polygon fill="#000" stroke="#000" points="1216.826 -205.977 1220.326 -215.977 1223.826 -205.977 1216.826 -205.977"/></g><g id="node13" class="node"><title>L10nDatePipe</title><polygon fill="#fb8072" stroke="#000" points="1174.368 -252 1073.632 -252 1073.632 -216 1174.368 -216 1174.368 -252"/><text x="1124" y="-229.8" fill="#000" font-family="Times,serif" font-size="14" text-anchor="middle">L10nDatePipe</text></g><g id="edge12" class="edge"><title>L10nIntlModule-&gt;L10nDatePipe</title><path fill="none" stroke="#000" stroke-dasharray="5 2" d="M863.0943,-179C948.2375,-179 1103.928,-179 1103.928,-179 1103.928,-179 1103.928,-205.9909 1103.928,-205.9909"/><polygon fill="#000" stroke="#000" points="1100.428 -205.991 1103.928 -215.991 1107.428 -205.991 1100.428 -205.991"/></g><g id="node14" class="node"><title>L10nNumberAsyncPipe</title><polygon fill="#fb8072" stroke="#000" points="1055.579 -252 900.421 -252 900.421 -216 1055.579 -216 1055.579 -252"/><text x="978" y="-229.8" fill="#000" font-family="Times,serif" font-size="14" text-anchor="middle">L10nNumberAsyncPipe</text></g><g id="edge13" class="edge"><title>L10nIntlModule-&gt;L10nNumberAsyncPipe</title><path fill="none" stroke="#000" stroke-dasharray="5 2" d="M863.2998,-183C896.2451,-183 931.9823,-183 931.9823,-183 931.9823,-183 931.9823,-205.8757 931.9823,-205.8757"/><polygon fill="#000" stroke="#000" points="928.482 -205.876 931.982 -215.876 935.482 -205.876 928.482 -205.876"/></g><g id="node15" class="node"><title>L10nNumberDirective</title><polygon fill="#fb8072" stroke="#000" points="882.508 -252 735.492 -252 735.492 -216 882.508 -216 882.508 -252"/><text x="809" y="-229.8" fill="#000" font-family="Times,serif" font-size="14" text-anchor="middle">L10nNumberDirective</text></g><g id="edge14" class="edge"><title>L10nIntlModule-&gt;L10nNumberDirective</title><path fill="none" stroke="#000" stroke-dasharray="5 2" d="M809,-187.1061C809,-187.1061 809,-205.991 809,-205.991"/><polygon fill="#000" stroke="#000" points="805.5 -205.991 809 -215.991 812.5 -205.991 805.5 -205.991"/></g><g id="node16" class="node"><title>L10nNumberPipe</title><polygon fill="#fb8072" stroke="#000" points="717.813 -252 598.187 -252 598.187 -216 717.813 -216 717.813 -252"/><text x="658" y="-229.8" fill="#000" font-family="Times,serif" font-size="14" text-anchor="middle">L10nNumberPipe</text></g><g id="edge15" class="edge"><title>L10nIntlModule-&gt;L10nNumberPipe</title><path fill="none" stroke="#000" stroke-dasharray="5 2" d="M754.8098,-183C728.2394,-183 701.875,-183 701.875,-183 701.875,-183 701.875,-205.8757 701.875,-205.8757"/><polygon fill="#000" stroke="#000" points="698.375 -205.876 701.875 -215.876 705.375 -205.876 698.375 -205.876"/></g><g id="node17" class="node"><title>L10nTimeAgoAsyncPipe</title><polygon fill="#fb8072" stroke="#000" points="579.862 -252 416.138 -252 416.138 -216 579.862 -216 579.862 -252"/><text x="498" y="-229.8" fill="#000" font-family="Times,serif" font-size="14" text-anchor="middle">L10nTimeAgoAsyncPipe</text></g><g id="edge16" class="edge"><title>L10nIntlModule-&gt;L10nTimeAgoAsyncPipe</title><path fill="none" stroke="#000" stroke-dasharray="5 2" d="M754.7082,-179C677.1424,-179 543.875,-179 543.875,-179 543.875,-179 543.875,-205.9909 543.875,-205.9909"/><polygon fill="#000" stroke="#000" points="540.375 -205.991 543.875 -215.991 547.375 -205.991 540.375 -205.991"/></g><g id="node18" class="node"><title>L10nTimeAgoDirective</title><polygon fill="#fb8072" stroke="#000" points="398.291 -252 243.709 -252 243.709 -216 398.291 -216 398.291 -252"/><text x="321" y="-229.8" fill="#000" font-family="Times,serif" font-size="14" text-anchor="middle">L10nTimeAgoDirective</text></g><g id="edge17" class="edge"><title>L10nIntlModule-&gt;L10nTimeAgoDirective</title><path fill="none" stroke="#000" stroke-dasharray="5 2" d="M754.5288,-175C636.6392,-175 368.375,-175 368.375,-175 368.375,-175 368.375,-205.9775 368.375,-205.9775"/><polygon fill="#000" stroke="#000" points="364.875 -205.977 368.375 -215.977 371.875 -205.977 364.875 -205.977"/></g><g id="node19" class="node"><title>L10nTimeAgoPipe</title><polygon fill="#fb8072" stroke="#000" points="225.596 -252 98.404 -252 98.404 -216 225.596 -216 225.596 -252"/><text x="162" y="-229.8" fill="#000" font-family="Times,serif" font-size="14" text-anchor="middle">L10nTimeAgoPipe</text></g><g id="edge18" class="edge"><title>L10nIntlModule-&gt;L10nTimeAgoPipe</title><path fill="none" stroke="#000" stroke-dasharray="5 2" d="M754.8655,-171C607.6316,-171 210.875,-171 210.875,-171 210.875,-171 210.875,-205.7778 210.875,-205.7778"/><polygon fill="#000" stroke="#000" points="207.375 -205.778 210.875 -215.778 214.375 -205.778 207.375 -205.778"/></g><g id="node20" class="node"><title>L10nIntlService</title><ellipse cx="98" cy="-104" fill="#fdb462" stroke="#000" rx="73.575" ry="18"/><text x="98" y="-99.8" fill="#000" font-family="Times,serif" font-size="14" text-anchor="middle">L10nIntlService</text></g><g id="edge19" class="edge"><title>L10nIntlService-&gt;L10nIntlModule</title><path fill="none" stroke="#000" d="M134.9948,-119.8976C134.9948,-138.5608 134.9948,-167 134.9948,-167 134.9948,-167 744.6988,-167 744.6988,-167"/><polygon fill="#000" stroke="#000" points="744.699 -170.5 754.699 -167 744.699 -163.5 744.699 -170.5"/></g></g></svg>