<svg xmlns="http://www.w3.org/2000/svg" xmlns:xlink="http://www.w3.org/1999/xlink" width="1790pt" height="349pt" viewBox="0 0 1790 349"><g id="graph0" class="graph" transform="scale(1 1) rotate(0) translate(4 345)"><title>dependencies</title><polygon fill="#fff" stroke="transparent" points="-4 4 -4 -345 1786 -345 1786 4 -4 4"/><text x="870.009" y="-42.4" fill="#000" font-family="sans-serif" font-size="14" font-weight="bold" text-anchor="start">Legend</text><polygon fill="#ffffb3" stroke="transparent" points="657 -10 657 -30 677 -30 677 -10 657 -10"/><text x="680.629" y="-15.4" fill="#000" font-family="sans-serif" font-size="14" text-anchor="start">Declarations</text><polygon fill="#8dd3c7" stroke="transparent" points="770 -10 770 -30 790 -30 790 -10 770 -10"/><text x="793.725" y="-15.4" fill="#000" font-family="sans-serif" font-size="14" text-anchor="start">Module</text><polygon fill="#80b1d3" stroke="transparent" points="856 -10 856 -30 876 -30 876 -10 856 -10"/><text x="879.781" y="-15.4" fill="#000" font-family="sans-serif" font-size="14" text-anchor="start">Bootstrap</text><polygon fill="#fdb462" stroke="transparent" points="953 -10 953 -30 973 -30 973 -10 953 -10"/><text x="976.673" y="-15.4" fill="#000" font-family="sans-serif" font-size="14" text-anchor="start">Providers</text><polygon fill="#fb8072" stroke="transparent" points="1049 -10 1049 -30 1069 -30 1069 -10 1049 -10"/><text x="1072.726" y="-15.4" fill="#000" font-family="sans-serif" font-size="14" text-anchor="start">Exports</text><g id="clust1" class="cluster"><title>cluster_L10nValidationModule</title><polygon fill="none" stroke="#000" stroke-dasharray="1 5" points="8 -70 8 -333 1774 -333 1774 -70 8 -70"/></g><g id="clust2" class="cluster"><title>cluster_L10nValidationModule_declarations</title><polygon fill="none" stroke="#000" points="695 -143 695 -195 1091 -195 1091 -143 695 -143"/></g><g id="clust3" class="cluster"><title>cluster_L10nValidationModule_L10nValidateDateDirective_providers</title><polygon fill="none" stroke="#000" points="908 -78 908 -130 1766 -130 1766 -78 908 -78"/></g><g id="clust4" class="cluster"><title>cluster_L10nValidationModule_L10nValidateNumberDirective_providers</title><polygon fill="none" stroke="#000" points="16 -78 16 -130 900 -130 900 -78 16 -78"/></g><g id="clust6" class="cluster"><title>cluster_L10nValidationModule_exports</title><polygon fill="none" stroke="#000" points="691 -273 691 -325 1094 -325 1094 -273 691 -273"/></g><g id="node1" class="node"><title>L10nValidateDateDirective</title><polygon fill="#ffffb3" stroke="#000" points="1082.985 -187 911.015 -187 911.015 -151 1082.985 -151 1082.985 -187"/><text x="997" y="-164.8" fill="#000" font-family="Times,serif" font-size="14" text-anchor="middle">L10nValidateDateDirective</text></g><g id="node3" class="node"><title>L10nValidationModule</title><polygon fill="#8dd3c7" stroke="#000" points="971.201 -252 968.201 -256 947.201 -256 944.201 -252 822.799 -252 822.799 -216 971.201 -216 971.201 -252"/><text x="897" y="-229.8" fill="#000" font-family="Times,serif" font-size="14" text-anchor="middle">L10nValidationModule</text></g><g id="edge1" class="edge"><title>L10nValidateDateDirective-&gt;L10nValidationModule</title><path fill="none" stroke="#000" d="M941.1792,-187.1061C941.1792,-187.1061 941.1792,-205.991 941.1792,-205.991"/><polygon fill="#000" stroke="#000" points="937.679 -205.991 941.179 -215.991 944.679 -205.991 937.679 -205.991"/></g><g id="node2" class="node"><title>L10nValidateNumberDirective</title><polygon fill="#ffffb3" stroke="#000" points="893.43 -187 702.57 -187 702.57 -151 893.43 -151 893.43 -187"/><text x="798" y="-164.8" fill="#000" font-family="Times,serif" font-size="14" text-anchor="middle">L10nValidateNumberDirective</text></g><g id="edge3" class="edge"><title>L10nValidateNumberDirective-&gt;L10nValidationModule</title><path fill="none" stroke="#000" d="M858.1824,-187.1061C858.1824,-187.1061 858.1824,-205.991 858.1824,-205.991"/><polygon fill="#000" stroke="#000" points="854.682 -205.991 858.182 -215.991 861.682 -205.991 854.682 -205.991"/></g><g id="node6" class="node"><title>L10nValidateDateDirective</title><polygon fill="#fb8072" stroke="#000" points="1086.484 -317 911.516 -317 911.516 -281 1086.484 -281 1086.484 -317"/><text x="999" y="-294.8" fill="#000" font-family="Times,serif" font-size="14" text-anchor="middle">L10nValidateDateDirective</text></g><g id="edge5" class="edge"><title>L10nValidationModule-&gt;L10nValidateDateDirective</title><path fill="none" stroke="#000" stroke-dasharray="5 2" d="M941.3042,-252.1061C941.3042,-252.1061 941.3042,-270.991 941.3042,-270.991"/><polygon fill="#000" stroke="#000" points="937.804 -270.991 941.304 -280.991 944.804 -270.991 937.804 -270.991"/></g><g id="node7" class="node"><title>L10nValidateNumberDirective</title><polygon fill="#fb8072" stroke="#000" points="893.431 -317 698.569 -317 698.569 -281 893.431 -281 893.431 -317"/><text x="796" y="-294.8" fill="#000" font-family="Times,serif" font-size="14" text-anchor="middle">L10nValidateNumberDirective</text></g><g id="edge6" class="edge"><title>L10nValidationModule-&gt;L10nValidateNumberDirective</title><path fill="none" stroke="#000" stroke-dasharray="5 2" d="M858.0574,-252.1061C858.0574,-252.1061 858.0574,-270.991 858.0574,-270.991"/><polygon fill="#000" stroke="#000" points="854.557 -270.991 858.057 -280.991 861.557 -270.991 854.557 -270.991"/></g><g id="node4" class="node"><title>{ provide: NG_VALIDATORS, useExisting: forwardRef(() =&gt; L10nValidateDateDirective), multi: true }</title><ellipse cx="1337" cy="-104" fill="#fdb462" stroke="#000" rx="420.662" ry="18"/><text x="1337" y="-99.8" fill="#000" font-family="Times,serif" font-size="14" text-anchor="middle">{ provide: NG_VALIDATORS, useExisting: forwardRef(() =&gt; L10nValidateDateDirective), multi: true }</text></g><g id="edge2" class="edge"><title>{ provide: NG_VALIDATORS, useExisting: forwardRef(() =&gt; L10nValidateDateDirective), multi: true }-&gt;L10nValidateDateDirective</title><path fill="none" stroke="#000" d="M999.4556,-115.0264C999.4556,-115.0264 999.4556,-140.7791 999.4556,-140.7791"/><polygon fill="#000" stroke="#000" points="995.956 -140.779 999.456 -150.779 1002.956 -140.779 995.956 -140.779"/></g><g id="node5" class="node"><title>{ provide: NG_VALIDATORS, useExisting: forwardRef(() =&gt; L10nValidateNumberDirective), multi: true }</title><ellipse cx="458" cy="-104" fill="#fdb462" stroke="#000" rx="434.489" ry="18"/><text x="458" y="-99.8" fill="#000" font-family="Times,serif" font-size="14" text-anchor="middle">{ provide: NG_VALIDATORS, useExisting: forwardRef(() =&gt; L10nValidateNumberDirective), multi: true }</text></g><g id="edge4" class="edge"><title>{ provide: NG_VALIDATORS, useExisting: forwardRef(() =&gt; L10nValidateNumberDirective), multi: true }-&gt;L10nValidateNumberDirective</title><path fill="none" stroke="#000" d="M797.3897,-115.3221C797.3897,-115.3221 797.3897,-140.9424 797.3897,-140.9424"/><polygon fill="#000" stroke="#000" points="793.89 -140.942 797.39 -150.942 800.89 -140.942 793.89 -140.942"/></g></g></svg>