<svg xmlns="http://www.w3.org/2000/svg" xmlns:xlink="http://www.w3.org/1999/xlink" width="712" height="284pt" viewBox="0 0 534 284"><g id="graph0" class="graph" transform="scale(1 1) rotate(0) translate(4 280)"><title>dependencies</title><polygon fill="#fff" stroke="transparent" points="-4 4 -4 -280 530 -280 530 4 -4 4"/><text x="242.009" y="-42.4" fill="#000" font-family="sans-serif" font-size="14" font-weight="bold" text-anchor="start">Legend</text><polygon fill="#ffffb3" stroke="transparent" points="29 -10 29 -30 49 -30 49 -10 29 -10"/><text x="52.629" y="-15.4" fill="#000" font-family="sans-serif" font-size="14" text-anchor="start">Declarations</text><polygon fill="#8dd3c7" stroke="transparent" points="142 -10 142 -30 162 -30 162 -10 142 -10"/><text x="165.725" y="-15.4" fill="#000" font-family="sans-serif" font-size="14" text-anchor="start">Module</text><polygon fill="#80b1d3" stroke="transparent" points="228 -10 228 -30 248 -30 248 -10 228 -10"/><text x="251.781" y="-15.4" fill="#000" font-family="sans-serif" font-size="14" text-anchor="start">Bootstrap</text><polygon fill="#fdb462" stroke="transparent" points="325 -10 325 -30 345 -30 345 -10 325 -10"/><text x="348.673" y="-15.4" fill="#000" font-family="sans-serif" font-size="14" text-anchor="start">Providers</text><polygon fill="#fb8072" stroke="transparent" points="421 -10 421 -30 441 -30 441 -10 421 -10"/><text x="444.726" y="-15.4" fill="#000" font-family="sans-serif" font-size="14" text-anchor="start">Exports</text><g id="clust1" class="cluster"><title>cluster_L10nTranslationModule</title><polygon fill="none" stroke="#000" stroke-dasharray="1 5" points="8 -70 8 -268 518 -268 518 -70 8 -70"/></g><g id="clust2" class="cluster"><title>cluster_L10nTranslationModule_declarations</title><polygon fill="none" stroke="#000" points="22 -78 22 -130 504 -130 504 -78 22 -78"/></g><g id="clust7" class="cluster"><title>cluster_L10nTranslationModule_exports</title><polygon fill="none" stroke="#000" points="16 -208 16 -260 510 -260 510 -208 16 -208"/></g><g id="node1" class="node"><title>L10nTranslateAsyncPipe</title><polygon fill="#ffffb3" stroke="#000" points="496.289 -122 337.711 -122 337.711 -86 496.289 -86 496.289 -122"/><text x="417" y="-99.8" fill="#000" font-family="Times,serif" font-size="14" text-anchor="middle">L10nTranslateAsyncPipe</text></g><g id="node4" class="node"><title>L10nTranslationModule</title><polygon fill="#8dd3c7" stroke="#000" points="321.361 -187 318.361 -191 297.361 -191 294.361 -187 168.639 -187 168.639 -151 321.361 -151 321.361 -187"/><text x="245" y="-164.8" fill="#000" font-family="Times,serif" font-size="14" text-anchor="middle">L10nTranslationModule</text></g><g id="edge1" class="edge"><title>L10nTranslateAsyncPipe-&gt;L10nTranslationModule</title><path fill="none" stroke="#000" d="M444.1315,-122.0225C444.1315,-139.3734 444.1315,-163 444.1315,-163 444.1315,-163 331.4199,-163 331.4199,-163"/><polygon fill="#000" stroke="#000" points="331.42 -159.5 321.42 -163 331.42 -166.5 331.42 -159.5"/></g><g id="node2" class="node"><title>L10nTranslateDirective</title><polygon fill="#ffffb3" stroke="#000" points="319.719 -122 170.281 -122 170.281 -86 319.719 -86 319.719 -122"/><text x="245" y="-99.8" fill="#000" font-family="Times,serif" font-size="14" text-anchor="middle">L10nTranslateDirective</text></g><g id="edge2" class="edge"><title>L10nTranslateDirective-&gt;L10nTranslationModule</title><path fill="none" stroke="#000" d="M245,-122.1061C245,-122.1061 245,-140.991 245,-140.991"/><polygon fill="#000" stroke="#000" points="241.5 -140.991 245 -150.991 248.5 -140.991 241.5 -140.991"/></g><g id="node3" class="node"><title>L10nTranslatePipe</title><polygon fill="#ffffb3" stroke="#000" points="152.024 -122 29.976 -122 29.976 -86 152.024 -86 152.024 -122"/><text x="91" y="-99.8" fill="#000" font-family="Times,serif" font-size="14" text-anchor="middle">L10nTranslatePipe</text></g><g id="edge3" class="edge"><title>L10nTranslatePipe-&gt;L10nTranslationModule</title><path fill="none" stroke="#000" d="M109.9205,-122.0225C109.9205,-139.3734 109.9205,-163 109.9205,-163 109.9205,-163 158.3827,-163 158.3827,-163"/><polygon fill="#000" stroke="#000" points="158.383 -166.5 168.383 -163 158.383 -159.5 158.383 -166.5"/></g><g id="node5" class="node"><title>L10nTranslateAsyncPipe</title><polygon fill="#fb8072" stroke="#000" points="501.789 -252 340.211 -252 340.211 -216 501.789 -216 501.789 -252"/><text x="421" y="-229.8" fill="#000" font-family="Times,serif" font-size="14" text-anchor="middle">L10nTranslateAsyncPipe</text></g><g id="edge4" class="edge"><title>L10nTranslationModule-&gt;L10nTranslateAsyncPipe</title><path fill="none" stroke="#000" stroke-dasharray="5 2" d="M321.5756,-175C357.3228,-175 392.1185,-175 392.1185,-175 392.1185,-175 392.1185,-205.9775 392.1185,-205.9775"/><polygon fill="#000" stroke="#000" points="388.619 -205.977 392.118 -215.977 395.619 -205.977 388.619 -205.977"/></g><g id="node6" class="node"><title>L10nTranslateDirective</title><polygon fill="#fb8072" stroke="#000" points="321.718 -252 168.282 -252 168.282 -216 321.718 -216 321.718 -252"/><text x="245" y="-229.8" fill="#000" font-family="Times,serif" font-size="14" text-anchor="middle">L10nTranslateDirective</text></g><g id="edge5" class="edge"><title>L10nTranslationModule-&gt;L10nTranslateDirective</title><path fill="none" stroke="#000" stroke-dasharray="5 2" d="M245,-187.1061C245,-187.1061 245,-205.991 245,-205.991"/><polygon fill="#000" stroke="#000" points="241.5 -205.991 245 -215.991 248.5 -205.991 241.5 -205.991"/></g><g id="node7" class="node"><title>L10nTranslatePipe</title><polygon fill="#fb8072" stroke="#000" points="150.023 -252 23.977 -252 23.977 -216 150.023 -216 150.023 -252"/><text x="87" y="-229.8" fill="#000" font-family="Times,serif" font-size="14" text-anchor="middle">L10nTranslatePipe</text></g><g id="edge6" class="edge"><title>L10nTranslationModule-&gt;L10nTranslatePipe</title><path fill="none" stroke="#000" stroke-dasharray="5 2" d="M168.4225,-175C121.2868,-175 69.8295,-175 69.8295,-175 69.8295,-175 69.8295,-205.9775 69.8295,-205.9775"/><polygon fill="#000" stroke="#000" points="66.33 -205.977 69.829 -215.977 73.33 -205.977 66.33 -205.977"/></g></g></svg>